<svg xmlns="http://www.w3.org/2000/svg" xmlns:xlink="http://www.w3.org/1999/xlink" width="32" zoomAndPan="magnify" viewBox="0 0 30 30.000001" height="32" preserveAspectRatio="xMidYMid meet" version="1.0"><defs><clipPath id="fbadeb9a19"><path d="M 0.484375 0 L 29.515625 0 L 29.515625 29.03125 L 0.484375 29.03125 Z M 0.484375 0 " clip-rule="nonzero"/></clipPath></defs><g clip-path="url(#fbadeb9a19)"><path fill="#0f2137" d="M 15 0 C 14.046875 0 13.101562 0.09375 12.167969 0.277344 C 11.234375 0.464844 10.324219 0.738281 9.445312 1.105469 C 8.5625 1.46875 7.726562 1.917969 6.933594 2.445312 C 6.144531 2.976562 5.410156 3.578125 4.734375 4.25 C 4.0625 4.925781 3.460938 5.660156 2.929688 6.453125 C 2.402344 7.242188 1.953125 8.082031 1.589844 8.960938 C 1.222656 9.839844 0.949219 10.75 0.761719 11.683594 C 0.578125 12.617188 0.484375 13.5625 0.484375 14.515625 C 0.484375 15.46875 0.578125 16.414062 0.761719 17.347656 C 0.949219 18.28125 1.222656 19.191406 1.589844 20.070312 C 1.953125 20.953125 2.402344 21.789062 2.929688 22.582031 C 3.460938 23.375 4.0625 24.105469 4.734375 24.78125 C 5.410156 25.453125 6.144531 26.054688 6.933594 26.585938 C 7.726562 27.117188 8.5625 27.5625 9.445312 27.925781 C 10.324219 28.292969 11.234375 28.566406 12.167969 28.753906 C 13.101562 28.9375 14.046875 29.03125 15 29.03125 C 15.953125 29.03125 16.898438 28.9375 17.832031 28.753906 C 18.765625 28.566406 19.675781 28.292969 20.554688 27.925781 C 21.4375 27.5625 22.273438 27.117188 23.066406 26.585938 C 23.855469 26.054688 24.589844 25.453125 25.265625 24.78125 C 25.9375 24.105469 26.539062 23.375 27.070312 22.582031 C 27.597656 21.789062 28.046875 20.953125 28.410156 20.070312 C 28.777344 19.191406 29.050781 18.28125 29.238281 17.347656 C 29.421875 16.414062 29.515625 15.46875 29.515625 14.515625 C 29.515625 13.5625 29.421875 12.621094 29.234375 11.683594 C 29.046875 10.75 28.773438 9.84375 28.40625 8.964844 C 28.042969 8.082031 27.59375 7.246094 27.066406 6.457031 C 26.535156 5.664062 25.933594 4.929688 25.257812 4.257812 C 24.585938 3.582031 23.851562 2.980469 23.0625 2.453125 C 22.269531 1.921875 21.433594 1.472656 20.550781 1.109375 C 19.671875 0.746094 18.765625 0.46875 17.832031 0.28125 C 16.894531 0.09375 15.953125 0 15 0 Z M 24.46875 19.402344 C 24.464844 19.675781 24.414062 19.9375 24.308594 20.1875 C 24.207031 20.441406 24.058594 20.664062 23.863281 20.855469 C 23.671875 21.046875 23.449219 21.195312 23.199219 21.300781 C 22.945312 21.40625 22.683594 21.457031 22.410156 21.457031 L 7.589844 21.457031 C 7.316406 21.457031 7.054688 21.40625 6.800781 21.300781 C 6.550781 21.195312 6.328125 21.046875 6.136719 20.855469 C 5.941406 20.664062 5.792969 20.441406 5.691406 20.1875 C 5.585938 19.9375 5.535156 19.675781 5.53125 19.402344 L 5.53125 9.628906 C 5.535156 9.355469 5.585938 9.09375 5.691406 8.84375 C 5.792969 8.589844 5.941406 8.367188 6.136719 8.175781 C 6.328125 7.984375 6.550781 7.835938 6.800781 7.730469 C 7.054688 7.625 7.316406 7.574219 7.589844 7.574219 L 21.296875 7.574219 C 21.636719 7.574219 21.949219 7.667969 22.234375 7.855469 C 22.515625 8.046875 22.722656 8.296875 22.851562 8.613281 C 22.984375 8.925781 23.015625 9.25 22.949219 9.582031 C 22.882812 9.917969 22.726562 10.203125 22.488281 10.445312 L 15.445312 17.488281 C 15.324219 17.609375 15.175781 17.671875 15 17.671875 C 14.824219 17.671875 14.675781 17.609375 14.554688 17.488281 L 8.242188 11.175781 C 8.121094 11.050781 8.0625 10.902344 8.066406 10.730469 C 8.066406 10.558594 8.128906 10.414062 8.25 10.289062 C 8.371094 10.167969 8.519531 10.109375 8.691406 10.105469 C 8.863281 10.105469 9.011719 10.164062 9.136719 10.28125 L 15 16.148438 L 21.59375 9.554688 C 21.726562 9.421875 21.757812 9.269531 21.6875 9.09375 C 21.613281 8.921875 21.484375 8.835938 21.296875 8.835938 L 7.589844 8.835938 C 7.371094 8.835938 7.183594 8.914062 7.027344 9.070312 C 6.875 9.222656 6.796875 9.410156 6.796875 9.628906 L 6.796875 19.402344 C 6.796875 19.621094 6.875 19.808594 7.027344 19.964844 C 7.183594 20.117188 7.371094 20.195312 7.589844 20.195312 L 22.410156 20.195312 C 22.628906 20.195312 22.816406 20.117188 22.972656 19.964844 C 23.125 19.808594 23.203125 19.621094 23.203125 19.402344 L 23.203125 11.359375 C 23.203125 11.1875 23.265625 11.039062 23.390625 10.914062 C 23.511719 10.789062 23.660156 10.730469 23.835938 10.730469 C 24.011719 10.730469 24.160156 10.789062 24.28125 10.914062 C 24.40625 11.039062 24.46875 11.1875 24.46875 11.359375 Z M 24.46875 19.402344 " fill-opacity="1" fill-rule="nonzero"/></g></svg>