<svg xmlns="http://www.w3.org/2000/svg" xmlns:xlink="http://www.w3.org/1999/xlink" width="84" zoomAndPan="magnify" viewBox="0 0 63 30.000001" height="40" preserveAspectRatio="xMidYMid meet" version="1.0"><defs><g/><clipPath id="25946e61e0"><path d="M 1.015625 0 L 61.984375 0 L 61.984375 29.03125 L 1.015625 29.03125 Z M 1.015625 0 " clip-rule="nonzero"/></clipPath><clipPath id="1ff9aaaf3f"><path d="M 14.800781 0.792969 L 48.199219 0.792969 L 48.199219 29.03125 L 14.800781 29.03125 Z M 14.800781 0.792969 " clip-rule="nonzero"/></clipPath><clipPath id="0cacf29054"><path d="M 26.886719 37.054688 L 36.113281 37.054688 L 48.199219 0.792969 L 14.800781 0.792969 L 26.886719 37.054688 " clip-rule="nonzero"/></clipPath></defs><g clip-path="url(#25946e61e0)"><path fill="#ffffff" d="M 1.015625 0 L 61.984375 0 L 61.984375 36.289062 L 1.015625 36.289062 Z M 1.015625 0 " fill-opacity="1" fill-rule="nonzero"/><path fill="#ffffff" d="M 1.015625 0 L 61.984375 0 L 61.984375 29.03125 L 1.015625 29.03125 Z M 1.015625 0 " fill-opacity="1" fill-rule="nonzero"/><path fill="#ffffff" d="M 1.015625 0 L 61.984375 0 L 61.984375 29.03125 L 1.015625 29.03125 Z M 1.015625 0 " fill-opacity="1" fill-rule="nonzero"/></g><g clip-path="url(#1ff9aaaf3f)"><g clip-path="url(#0cacf29054)"><path fill="#d9d9d9" d="M 14.800781 0.792969 L 48.199219 0.792969 L 48.199219 37.054688 L 14.800781 37.054688 Z M 14.800781 0.792969 " fill-opacity="1" fill-rule="nonzero"/></g></g><g fill="#000000" fill-opacity="0.4"><g transform="translate(13.683976, 20.121537)"><g><path d="M 18.308594 -13.410156 C 17.691406 -14.222656 16.382812 -15.410156 15.292969 -16.207031 L 14.261719 -15.453125 C 15.351562 -14.597656 16.621094 -13.367188 17.238281 -12.554688 Z M 10.253906 -15.390625 L 2.738281 -15.390625 L 2.738281 -14.0625 L 10.253906 -14.0625 Z M 7.816406 -5.632812 L 11.226562 -5.632812 L 11.226562 -6.960938 L 7.816406 -6.960938 L 7.816406 -9.71875 L 6.386719 -9.71875 L 6.386719 -1.152344 L 4.066406 -0.734375 L 4.066406 -8.230469 L 2.699219 -8.230469 L 2.699219 -0.496094 L 0.914062 -0.21875 L 1.269531 1.210938 C 4.085938 0.714844 8.132812 -0.0195312 11.882812 -0.734375 L 11.78125 -2.101562 C 10.453125 -1.863281 9.125 -1.605469 7.816406 -1.367188 Z M 18.683594 -10.414062 L 18.683594 -11.800781 L 13.386719 -11.800781 C 13.308594 -13.269531 13.269531 -14.835938 13.289062 -16.503906 L 11.820312 -16.503906 C 11.820312 -14.875 11.882812 -13.308594 11.960938 -11.800781 L 1.152344 -11.800781 L 1.152344 -10.414062 L 12.039062 -10.414062 C 12.515625 -3.550781 13.882812 1.527344 16.839844 1.546875 C 18.308594 1.546875 18.804688 0.554688 19.0625 -2.855469 C 18.664062 -3.015625 18.148438 -3.3125 17.8125 -3.628906 C 17.710938 -1.011719 17.476562 0.0976562 16.980469 0.0976562 C 15.171875 0.0976562 13.90625 -4.183594 13.46875 -10.414062 Z M 18.683594 -10.414062 "/></g></g></g><g fill="#000000" fill-opacity="0.4"><g transform="translate(32.527231, 20.121537)"><g><path d="M 7.398438 -3.96875 C 6.507812 -2.636719 5.195312 -1.152344 4.027344 -0.160156 C 4.382812 0.0585938 4.980469 0.457031 5.277344 0.675781 C 6.386719 -0.398438 7.753906 -2.0625 8.765625 -3.492188 Z M 7.339844 -7.953125 L 15.570312 -7.953125 L 15.570312 -6.109375 L 7.339844 -6.109375 Z M 7.339844 -10.910156 L 15.570312 -10.910156 L 15.570312 -9.066406 L 7.339844 -9.066406 Z M 17.058594 -4.9375 L 17.058594 -12.078125 L 11.34375 -12.078125 C 11.625 -12.574219 11.921875 -13.109375 12.21875 -13.644531 L 10.511719 -13.90625 C 10.335938 -13.386719 10.054688 -12.675781 9.757812 -12.078125 L 5.890625 -12.078125 L 5.890625 -4.9375 L 10.730469 -4.9375 L 10.730469 -0.117188 C 10.730469 0.117188 10.652344 0.199219 10.335938 0.21875 C 10.035156 0.21875 9.023438 0.21875 7.875 0.199219 C 8.054688 0.574219 8.269531 1.109375 8.332031 1.507812 C 9.839844 1.507812 10.808594 1.507812 11.40625 1.269531 C 12 1.050781 12.160156 0.675781 12.160156 -0.0976562 L 12.160156 -4.9375 Z M 13.824219 -3.3125 C 15.015625 -2.023438 16.582031 -0.277344 17.316406 0.792969 L 18.546875 0 C 17.753906 -1.011719 16.164062 -2.699219 14.996094 -3.925781 Z M 18.625 -15.492188 L 2.65625 -15.492188 L 2.65625 -9.898438 C 2.65625 -6.882812 2.480469 -2.636719 0.753906 0.375 C 1.128906 0.515625 1.746094 0.871094 2.023438 1.109375 C 3.847656 -2.042969 4.105469 -6.722656 4.105469 -9.898438 L 4.105469 -14.140625 L 18.625 -14.140625 Z M 18.625 -15.492188 "/></g></g></g><g fill="#000000" fill-opacity="1"><g transform="translate(12.807384, 19.244946)"><g><path d="M 18.308594 -13.410156 C 17.691406 -14.222656 16.382812 -15.410156 15.292969 -16.207031 L 14.261719 -15.453125 C 15.351562 -14.597656 16.621094 -13.367188 17.238281 -12.554688 Z M 10.253906 -15.390625 L 2.738281 -15.390625 L 2.738281 -14.0625 L 10.253906 -14.0625 Z M 7.816406 -5.632812 L 11.226562 -5.632812 L 11.226562 -6.960938 L 7.816406 -6.960938 L 7.816406 -9.71875 L 6.386719 -9.71875 L 6.386719 -1.152344 L 4.066406 -0.734375 L 4.066406 -8.230469 L 2.699219 -8.230469 L 2.699219 -0.496094 L 0.914062 -0.21875 L 1.269531 1.210938 C 4.085938 0.714844 8.132812 -0.0195312 11.882812 -0.734375 L 11.78125 -2.101562 C 10.453125 -1.863281 9.125 -1.605469 7.816406 -1.367188 Z M 18.683594 -10.414062 L 18.683594 -11.800781 L 13.386719 -11.800781 C 13.308594 -13.269531 13.269531 -14.835938 13.289062 -16.503906 L 11.820312 -16.503906 C 11.820312 -14.875 11.882812 -13.308594 11.960938 -11.800781 L 1.152344 -11.800781 L 1.152344 -10.414062 L 12.039062 -10.414062 C 12.515625 -3.550781 13.882812 1.527344 16.839844 1.546875 C 18.308594 1.546875 18.804688 0.554688 19.0625 -2.855469 C 18.664062 -3.015625 18.148438 -3.3125 17.8125 -3.628906 C 17.710938 -1.011719 17.476562 0.0976562 16.980469 0.0976562 C 15.171875 0.0976562 13.90625 -4.183594 13.46875 -10.414062 Z M 18.683594 -10.414062 "/></g></g></g><g fill="#000000" fill-opacity="1"><g transform="translate(31.65064, 19.244946)"><g><path d="M 7.398438 -3.96875 C 6.507812 -2.636719 5.195312 -1.152344 4.027344 -0.160156 C 4.382812 0.0585938 4.980469 0.457031 5.277344 0.675781 C 6.386719 -0.398438 7.753906 -2.0625 8.765625 -3.492188 Z M 7.339844 -7.953125 L 15.570312 -7.953125 L 15.570312 -6.109375 L 7.339844 -6.109375 Z M 7.339844 -10.910156 L 15.570312 -10.910156 L 15.570312 -9.066406 L 7.339844 -9.066406 Z M 17.058594 -4.9375 L 17.058594 -12.078125 L 11.34375 -12.078125 C 11.625 -12.574219 11.921875 -13.109375 12.21875 -13.644531 L 10.511719 -13.90625 C 10.335938 -13.386719 10.054688 -12.675781 9.757812 -12.078125 L 5.890625 -12.078125 L 5.890625 -4.9375 L 10.730469 -4.9375 L 10.730469 -0.117188 C 10.730469 0.117188 10.652344 0.199219 10.335938 0.21875 C 10.035156 0.21875 9.023438 0.21875 7.875 0.199219 C 8.054688 0.574219 8.269531 1.109375 8.332031 1.507812 C 9.839844 1.507812 10.808594 1.507812 11.40625 1.269531 C 12 1.050781 12.160156 0.675781 12.160156 -0.0976562 L 12.160156 -4.9375 Z M 13.824219 -3.3125 C 15.015625 -2.023438 16.582031 -0.277344 17.316406 0.792969 L 18.546875 0 C 17.753906 -1.011719 16.164062 -2.699219 14.996094 -3.925781 Z M 18.625 -15.492188 L 2.65625 -15.492188 L 2.65625 -9.898438 C 2.65625 -6.882812 2.480469 -2.636719 0.753906 0.375 C 1.128906 0.515625 1.746094 0.871094 2.023438 1.109375 C 3.847656 -2.042969 4.105469 -6.722656 4.105469 -9.898438 L 4.105469 -14.140625 L 18.625 -14.140625 Z M 18.625 -15.492188 "/></g></g></g><g fill="#000000" fill-opacity="1"><g transform="translate(15.528006, 27.163561)"><g><path d="M 2.40625 0 L 1.234375 0 C 1.191406 0 1.171875 -0.0195312 1.171875 -0.0625 L 1.171875 -0.3125 C 1.171875 -0.351562 1.191406 -0.375 1.234375 -0.375 L 1.625 -0.375 L 1.625 -3.25 L 0.671875 -3.25 L 0.671875 -2.703125 C 0.671875 -2.660156 0.644531 -2.640625 0.59375 -2.640625 L 0.3125 -2.640625 C 0.269531 -2.640625 0.25 -2.660156 0.25 -2.703125 L 0.25 -3.5625 C 0.25 -3.601562 0.269531 -3.625 0.3125 -3.625 L 3.359375 -3.625 C 3.398438 -3.625 3.421875 -3.601562 3.421875 -3.5625 L 3.421875 -2.703125 C 3.421875 -2.660156 3.398438 -2.640625 3.359375 -2.640625 L 3.0625 -2.640625 C 3.019531 -2.640625 3 -2.660156 3 -2.703125 L 3 -3.25 L 2.0625 -3.25 L 2.0625 -0.375 L 2.40625 -0.375 C 2.457031 -0.375 2.484375 -0.351562 2.484375 -0.3125 L 2.484375 -0.0625 C 2.484375 -0.0195312 2.457031 0 2.40625 0 Z M 2.40625 0 "/></g></g></g><g fill="#000000" fill-opacity="1"><g transform="translate(19.450083, 27.163561)"><g><path d="M 3.875 0 L 2.734375 0 C 2.691406 0 2.671875 -0.0195312 2.671875 -0.0625 L 2.671875 -0.3125 C 2.671875 -0.351562 2.691406 -0.375 2.734375 -0.375 L 3.09375 -0.375 L 2.765625 -1.25 L 1.359375 -1.25 L 1.03125 -0.375 L 1.375 -0.375 C 1.414062 -0.375 1.4375 -0.351562 1.4375 -0.3125 L 1.4375 -0.0625 C 1.4375 -0.0195312 1.414062 0 1.375 0 L 0.25 0 C 0.207031 0 0.1875 -0.0195312 0.1875 -0.0625 L 0.1875 -0.3125 C 0.1875 -0.351562 0.207031 -0.375 0.25 -0.375 L 0.578125 -0.375 L 1.671875 -3.25 L 1.390625 -3.25 C 1.347656 -3.25 1.328125 -3.269531 1.328125 -3.3125 L 1.328125 -3.5625 C 1.328125 -3.601562 1.347656 -3.625 1.390625 -3.625 L 2.078125 -3.625 C 2.160156 -3.625 2.222656 -3.601562 2.265625 -3.5625 C 2.304688 -3.53125 2.34375 -3.476562 2.375 -3.40625 L 3.53125 -0.375 L 3.875 -0.375 C 3.914062 -0.375 3.9375 -0.351562 3.9375 -0.3125 L 3.9375 -0.0625 C 3.9375 -0.0195312 3.914062 0 3.875 0 Z M 2.625 -1.59375 L 2.0625 -3.09375 L 2.046875 -3.09375 L 1.484375 -1.59375 Z M 2.625 -1.59375 "/></g></g></g><g fill="#000000" fill-opacity="1"><g transform="translate(23.947602, 27.163561)"><g><path d="M 3.546875 0 L 3.109375 0 C 2.984375 0 2.878906 -0.0820312 2.796875 -0.25 L 2.328125 -1.203125 C 2.296875 -1.253906 2.269531 -1.296875 2.25 -1.328125 C 2.226562 -1.359375 2.179688 -1.390625 2.109375 -1.421875 C 2.035156 -1.453125 1.945312 -1.46875 1.84375 -1.46875 L 1.125 -1.46875 L 1.125 -0.375 L 1.59375 -0.375 C 1.632812 -0.375 1.65625 -0.351562 1.65625 -0.3125 L 1.65625 -0.0625 C 1.65625 -0.0195312 1.632812 0 1.59375 0 L 0.3125 0 C 0.269531 0 0.25 -0.0195312 0.25 -0.0625 L 0.25 -0.3125 C 0.25 -0.351562 0.269531 -0.375 0.3125 -0.375 L 0.6875 -0.375 L 0.6875 -3.25 L 0.3125 -3.25 C 0.269531 -3.25 0.25 -3.269531 0.25 -3.3125 L 0.25 -3.5625 C 0.25 -3.601562 0.269531 -3.625 0.3125 -3.625 L 1.4375 -3.625 C 1.476562 -3.625 1.5 -3.601562 1.5 -3.5625 L 1.5 -3.3125 C 1.5 -3.269531 1.476562 -3.25 1.4375 -3.25 L 1.125 -3.25 L 1.125 -1.828125 L 1.65625 -1.828125 C 2.019531 -1.828125 2.285156 -1.929688 2.453125 -2.140625 C 2.628906 -2.347656 2.71875 -2.71875 2.71875 -3.25 L 2.375 -3.25 C 2.332031 -3.25 2.3125 -3.269531 2.3125 -3.3125 L 2.3125 -3.5625 C 2.3125 -3.601562 2.332031 -3.625 2.375 -3.625 L 3.5 -3.625 C 3.539062 -3.625 3.5625 -3.601562 3.5625 -3.5625 L 3.5625 -3.3125 C 3.5625 -3.269531 3.539062 -3.25 3.5 -3.25 L 3.15625 -3.25 C 3.15625 -2.4375 2.925781 -1.90625 2.46875 -1.65625 C 2.539062 -1.613281 2.597656 -1.5625 2.640625 -1.5 C 2.679688 -1.445312 2.734375 -1.363281 2.796875 -1.25 L 3.234375 -0.375 L 3.546875 -0.375 C 3.585938 -0.375 3.609375 -0.351562 3.609375 -0.3125 L 3.609375 -0.0625 C 3.609375 -0.0195312 3.585938 0 3.546875 0 Z M 3.546875 0 "/></g></g></g><g fill="#000000" fill-opacity="1"><g transform="translate(28.0514, 27.163561)"><g><path d="M 2.984375 0 L 0.3125 0 C 0.269531 0 0.25 -0.0195312 0.25 -0.0625 L 0.25 -0.3125 C 0.25 -0.351562 0.269531 -0.375 0.3125 -0.375 L 0.6875 -0.375 L 0.6875 -3.25 L 0.3125 -3.25 C 0.269531 -3.25 0.25 -3.269531 0.25 -3.3125 L 0.25 -3.5625 C 0.25 -3.601562 0.269531 -3.625 0.3125 -3.625 L 2.984375 -3.625 C 3.023438 -3.625 3.046875 -3.601562 3.046875 -3.5625 L 3.046875 -2.75 C 3.046875 -2.707031 3.023438 -2.6875 2.984375 -2.6875 L 2.71875 -2.6875 C 2.675781 -2.6875 2.65625 -2.707031 2.65625 -2.75 L 2.65625 -3.25 L 1.125 -3.25 L 1.125 -2 L 2.40625 -2 C 2.445312 -2 2.46875 -1.976562 2.46875 -1.9375 L 2.46875 -1.671875 C 2.46875 -1.628906 2.445312 -1.609375 2.40625 -1.609375 L 1.125 -1.609375 L 1.125 -0.375 L 2.65625 -0.375 L 2.65625 -0.875 C 2.65625 -0.914062 2.675781 -0.9375 2.71875 -0.9375 L 2.984375 -0.9375 C 3.023438 -0.9375 3.046875 -0.914062 3.046875 -0.875 L 3.046875 -0.0625 C 3.046875 -0.0195312 3.023438 0 2.984375 0 Z M 2.984375 0 "/></g></g></g><g fill="#000000" fill-opacity="1"><g transform="translate(31.599948, 27.163561)"><g><path d="M 3.828125 0 L 2.625 0 C 2.582031 0 2.5625 -0.0195312 2.5625 -0.0625 L 2.5625 -0.3125 C 2.5625 -0.351562 2.582031 -0.375 2.625 -0.375 L 3.015625 -0.375 L 3.015625 -1.609375 L 1.125 -1.609375 L 1.125 -0.375 L 1.515625 -0.375 C 1.554688 -0.375 1.578125 -0.351562 1.578125 -0.3125 L 1.578125 -0.0625 C 1.578125 -0.0195312 1.554688 0 1.515625 0 L 0.3125 0 C 0.269531 0 0.25 -0.0195312 0.25 -0.0625 L 0.25 -0.3125 C 0.25 -0.351562 0.269531 -0.375 0.3125 -0.375 L 0.6875 -0.375 L 0.6875 -3.25 L 0.3125 -3.25 C 0.269531 -3.25 0.25 -3.269531 0.25 -3.3125 L 0.25 -3.5625 C 0.25 -3.601562 0.269531 -3.625 0.3125 -3.625 L 1.515625 -3.625 C 1.554688 -3.625 1.578125 -3.601562 1.578125 -3.5625 L 1.578125 -3.3125 C 1.578125 -3.269531 1.554688 -3.25 1.515625 -3.25 L 1.125 -3.25 L 1.125 -1.984375 L 3.015625 -1.984375 L 3.015625 -3.25 L 2.625 -3.25 C 2.582031 -3.25 2.5625 -3.269531 2.5625 -3.3125 L 2.5625 -3.5625 C 2.5625 -3.601562 2.582031 -3.625 2.625 -3.625 L 3.828125 -3.625 C 3.867188 -3.625 3.890625 -3.601562 3.890625 -3.5625 L 3.890625 -3.3125 C 3.890625 -3.269531 3.867188 -3.25 3.828125 -3.25 L 3.453125 -3.25 L 3.453125 -0.375 L 3.828125 -0.375 C 3.867188 -0.375 3.890625 -0.351562 3.890625 -0.3125 L 3.890625 -0.0625 C 3.890625 -0.0195312 3.867188 0 3.828125 0 Z M 3.828125 0 "/></g></g></g><g fill="#000000" fill-opacity="1"><g transform="translate(35.991465, 27.163561)"><g><path d="M 3.875 0 L 2.734375 0 C 2.691406 0 2.671875 -0.0195312 2.671875 -0.0625 L 2.671875 -0.3125 C 2.671875 -0.351562 2.691406 -0.375 2.734375 -0.375 L 3.09375 -0.375 L 2.765625 -1.25 L 1.359375 -1.25 L 1.03125 -0.375 L 1.375 -0.375 C 1.414062 -0.375 1.4375 -0.351562 1.4375 -0.3125 L 1.4375 -0.0625 C 1.4375 -0.0195312 1.414062 0 1.375 0 L 0.25 0 C 0.207031 0 0.1875 -0.0195312 0.1875 -0.0625 L 0.1875 -0.3125 C 0.1875 -0.351562 0.207031 -0.375 0.25 -0.375 L 0.578125 -0.375 L 1.671875 -3.25 L 1.390625 -3.25 C 1.347656 -3.25 1.328125 -3.269531 1.328125 -3.3125 L 1.328125 -3.5625 C 1.328125 -3.601562 1.347656 -3.625 1.390625 -3.625 L 2.078125 -3.625 C 2.160156 -3.625 2.222656 -3.601562 2.265625 -3.5625 C 2.304688 -3.53125 2.34375 -3.476562 2.375 -3.40625 L 3.53125 -0.375 L 3.875 -0.375 C 3.914062 -0.375 3.9375 -0.351562 3.9375 -0.3125 L 3.9375 -0.0625 C 3.9375 -0.0195312 3.914062 0 3.875 0 Z M 2.625 -1.59375 L 2.0625 -3.09375 L 2.046875 -3.09375 L 1.484375 -1.59375 Z M 2.625 -1.59375 "/></g></g></g><g fill="#000000" fill-opacity="1"><g transform="translate(40.488983, 27.163561)"><g><path d="M 3.3125 0 L 2.859375 0 C 2.742188 0 2.644531 -0.0820312 2.5625 -0.25 L 2.09375 -1.203125 C 2.050781 -1.285156 2.003906 -1.347656 1.953125 -1.390625 C 1.910156 -1.429688 1.847656 -1.453125 1.765625 -1.453125 L 1.125 -1.453125 L 1.125 -0.375 L 1.578125 -0.375 C 1.617188 -0.375 1.640625 -0.351562 1.640625 -0.3125 L 1.640625 -0.0625 C 1.640625 -0.0195312 1.617188 0 1.578125 0 L 0.3125 0 C 0.269531 0 0.25 -0.0195312 0.25 -0.0625 L 0.25 -0.3125 C 0.25 -0.351562 0.269531 -0.375 0.3125 -0.375 L 0.6875 -0.375 L 0.6875 -3.25 L 0.3125 -3.25 C 0.269531 -3.25 0.25 -3.269531 0.25 -3.3125 L 0.25 -3.5625 C 0.25 -3.601562 0.269531 -3.625 0.3125 -3.625 L 1.859375 -3.625 C 2.222656 -3.625 2.515625 -3.523438 2.734375 -3.328125 C 2.960938 -3.140625 3.078125 -2.875 3.078125 -2.53125 C 3.078125 -2 2.832031 -1.671875 2.34375 -1.546875 C 2.40625 -1.492188 2.484375 -1.378906 2.578125 -1.203125 L 3 -0.375 L 3.3125 -0.375 C 3.34375 -0.375 3.359375 -0.351562 3.359375 -0.3125 L 3.359375 -0.0625 C 3.359375 -0.0195312 3.34375 0 3.3125 0 Z M 1.125 -1.8125 L 1.78125 -1.8125 C 2.351562 -1.8125 2.640625 -2.046875 2.640625 -2.515625 C 2.640625 -3.003906 2.351562 -3.25 1.78125 -3.25 L 1.125 -3.25 Z M 1.125 -1.8125 "/></g></g></g><g fill="#000000" fill-opacity="1"><g transform="translate(44.350489, 27.163561)"><g><path d="M 3.875 0 L 2.734375 0 C 2.691406 0 2.671875 -0.0195312 2.671875 -0.0625 L 2.671875 -0.3125 C 2.671875 -0.351562 2.691406 -0.375 2.734375 -0.375 L 3.09375 -0.375 L 2.765625 -1.25 L 1.359375 -1.25 L 1.03125 -0.375 L 1.375 -0.375 C 1.414062 -0.375 1.4375 -0.351562 1.4375 -0.3125 L 1.4375 -0.0625 C 1.4375 -0.0195312 1.414062 0 1.375 0 L 0.25 0 C 0.207031 0 0.1875 -0.0195312 0.1875 -0.0625 L 0.1875 -0.3125 C 0.1875 -0.351562 0.207031 -0.375 0.25 -0.375 L 0.578125 -0.375 L 1.671875 -3.25 L 1.390625 -3.25 C 1.347656 -3.25 1.328125 -3.269531 1.328125 -3.3125 L 1.328125 -3.5625 C 1.328125 -3.601562 1.347656 -3.625 1.390625 -3.625 L 2.078125 -3.625 C 2.160156 -3.625 2.222656 -3.601562 2.265625 -3.5625 C 2.304688 -3.53125 2.34375 -3.476562 2.375 -3.40625 L 3.53125 -0.375 L 3.875 -0.375 C 3.914062 -0.375 3.9375 -0.351562 3.9375 -0.3125 L 3.9375 -0.0625 C 3.9375 -0.0195312 3.914062 0 3.875 0 Z M 2.625 -1.59375 L 2.0625 -3.09375 L 2.046875 -3.09375 L 1.484375 -1.59375 Z M 2.625 -1.59375 "/></g></g></g></svg>