<svg xmlns="http://www.w3.org/2000/svg" xmlns:xlink="http://www.w3.org/1999/xlink" width="32" zoomAndPan="magnify" viewBox="0 0 30 30.000001" height="32" preserveAspectRatio="xMidYMid meet" version="1.0"><defs><clipPath id="ec026d88f4"><path d="M 0.808594 0.328125 L 29.117188 0.328125 L 29.117188 28.632812 L 0.808594 28.632812 Z M 0.808594 0.328125 " clip-rule="nonzero"/></clipPath></defs><g clip-path="url(#ec026d88f4)"><path fill="#0f2137" d="M 29.09375 14.46875 C 29.09375 15.398438 29.003906 16.316406 28.824219 17.226562 C 28.640625 18.136719 28.375 19.023438 28.019531 19.878906 C 27.664062 20.738281 27.226562 21.554688 26.710938 22.324219 C 26.195312 23.097656 25.609375 23.8125 24.953125 24.46875 C 24.296875 25.125 23.582031 25.710938 22.808594 26.226562 C 22.039062 26.742188 21.222656 27.179688 20.363281 27.535156 C 19.507812 27.890625 18.621094 28.15625 17.710938 28.339844 C 16.800781 28.519531 15.882812 28.609375 14.953125 28.609375 C 14.023438 28.609375 13.105469 28.519531 12.195312 28.339844 C 11.28125 28.15625 10.398438 27.890625 9.539062 27.535156 C 8.683594 27.179688 7.867188 26.742188 7.09375 26.226562 C 6.324219 25.710938 5.609375 25.125 4.953125 24.46875 C 4.296875 23.8125 3.710938 23.097656 3.195312 22.324219 C 2.679688 21.554688 2.242188 20.738281 1.886719 19.878906 C 1.53125 19.023438 1.261719 18.136719 1.082031 17.226562 C 0.902344 16.316406 0.808594 15.398438 0.808594 14.46875 C 0.808594 13.539062 0.902344 12.621094 1.082031 11.710938 C 1.261719 10.800781 1.53125 9.914062 1.886719 9.058594 C 2.242188 8.199219 2.679688 7.382812 3.195312 6.613281 C 3.710938 5.839844 4.296875 5.125 4.953125 4.46875 C 5.609375 3.8125 6.324219 3.226562 7.09375 2.710938 C 7.867188 2.195312 8.683594 1.757812 9.539062 1.402344 C 10.398438 1.046875 11.28125 0.78125 12.195312 0.597656 C 13.105469 0.417969 14.023438 0.328125 14.953125 0.328125 C 15.882812 0.328125 16.800781 0.417969 17.710938 0.597656 C 18.621094 0.78125 19.507812 1.046875 20.363281 1.402344 C 21.222656 1.757812 22.039062 2.195312 22.808594 2.710938 C 23.582031 3.226562 24.296875 3.8125 24.953125 4.46875 C 25.609375 5.125 26.195312 5.839844 26.710938 6.613281 C 27.226562 7.382812 27.664062 8.199219 28.019531 9.058594 C 28.375 9.914062 28.640625 10.800781 28.824219 11.710938 C 29.003906 12.621094 29.09375 13.539062 29.09375 14.46875 Z M 29.09375 14.46875 " fill-opacity="1" fill-rule="nonzero"/></g><path fill="#fefefe" d="M 15.164062 5.195312 C 20.152344 5.066406 24.304688 9.007812 24.433594 14 C 24.566406 18.988281 20.621094 23.140625 15.632812 23.269531 C 14.03125 23.3125 12.515625 22.933594 11.191406 22.234375 L 6.421875 23.691406 L 7.625 18.847656 C 6.859375 17.5625 6.40625 16.070312 6.363281 14.464844 C 6.230469 9.476562 10.175781 5.324219 15.164062 5.195312 Z M 10.195312 9.261719 C 7.910156 11.671875 7.609375 15.261719 9.285156 17.984375 L 8.375 21.628906 L 11.96875 20.53125 C 14.789062 22.070312 18.355469 21.566406 20.632812 19.167969 C 23.367188 16.289062 23.25 11.742188 20.375 9.003906 L 20.367188 9 C 17.488281 6.261719 12.933594 6.378906 10.199219 9.261719 Z M 16.351562 16.34375 C 15.027344 15.71875 13.933594 14.679688 13.242188 13.386719 C 13.359375 13.257812 13.484375 13.132812 13.609375 13.007812 C 13.746094 12.871094 13.773438 12.652344 13.683594 12.460938 C 13.4375 11.945312 13.261719 11.378906 13.175781 10.777344 C 13.140625 10.53125 12.960938 10.335938 12.742188 10.339844 C 12.589844 10.34375 12.40625 10.347656 12.210938 10.351562 C 11.429688 10.328125 10.78125 11.410156 11.152344 12.625 C 12.015625 15.472656 14.332031 17.671875 17.21875 18.382812 C 18.453125 18.691406 19.5 17.988281 19.4375 17.210938 C 19.433594 17.035156 19.425781 16.855469 19.421875 16.679688 C 19.414062 16.464844 19.210938 16.296875 18.960938 16.269531 C 18.359375 16.210938 17.785156 16.066406 17.253906 15.851562 C 17.058594 15.773438 16.84375 15.808594 16.710938 15.953125 C 16.59375 16.085938 16.476562 16.214844 16.351562 16.339844 Z M 16.351562 16.34375 " fill-opacity="1" fill-rule="evenodd"/></svg>